REM DIRINDEX 1\2\6,1\2\7,1\2\8,1\2\9,1\3\10,1\3\11,1\4\12,1\4\13,1\4\14,1\5\15,1\5\16,1\5\17
REM DIRNAME cjc020,folder01,folder02,folder03,folder04,folder05,folder06,folder07,folder08,folder09,folder10,folder11,folder12,folder13,folder14,folder15,folder16
TITLE ""
FILE "1900_2_sec01_0064_0078.mp3" MP3
  TRACK 01 AUDIO
    TITLE "0:"
    INDEX 01 00:00:00
  TRACK 02 AUDIO
    TITLE "13:cjc020_2212"
    INDEX 01 00:00:19
  TRACK 03 AUDIO
    TITLE "0:"
    INDEX 01 00:01:38
  TRACK 04 AUDIO
    TITLE "14:cjc020_2213"
    INDEX 01 00:01:42
  TRACK 05 AUDIO
    TITLE "0:"
    INDEX 01 00:03:45
  TRACK 06 AUDIO
    TITLE "13:cjc020_2214"
    INDEX 01 00:04:29
  TRACK 07 AUDIO
    TITLE "0:"
    INDEX 01 00:05:34
  TRACK 08 AUDIO
    TITLE "14:cjc020_2215"
    INDEX 01 00:05:36
  TRACK 09 AUDIO
    TITLE "0:"
    INDEX 01 00:09:63
  TRACK 10 AUDIO
    TITLE "13:cjc020_2216"
    INDEX 01 00:10:43
  TRACK 11 AUDIO
    TITLE "0:"
    INDEX 01 00:11:62
  TRACK 12 AUDIO
    TITLE "14:cjc020_2217"
    INDEX 01 00:11:64
  TRACK 13 AUDIO
    TITLE "0:"
    INDEX 01 00:15:01
  TRACK 14 AUDIO
    TITLE "13:cjc020_2218"
    INDEX 01 00:15:54
  TRACK 15 AUDIO
    TITLE "0:"
    INDEX 01 00:17:06
  TRACK 16 AUDIO
    TITLE "14:cjc020_2219"
    INDEX 01 00:17:10
  TRACK 17 AUDIO
    TITLE "0:"
    INDEX 01 00:20:08
  TRACK 18 AUDIO
    TITLE "13:cjc020_2220"
    INDEX 01 00:20:61
  TRACK 19 AUDIO
    TITLE "0:"
    INDEX 01 00:22:03
  TRACK 20 AUDIO
    TITLE "14:cjc020_2221"
    INDEX 01 00:22:07
  TRACK 21 AUDIO
    TITLE "0:"
    INDEX 01 00:25:58
  TRACK 22 AUDIO
    TITLE "13:cjc020_2222"
    INDEX 01 00:26:38
  TRACK 23 AUDIO
    TITLE "0:"
    INDEX 01 00:27:53
  TRACK 24 AUDIO
    TITLE "14:cjc020_2223"
    INDEX 01 00:27:57
  TRACK 25 AUDIO
    TITLE "0:"
    INDEX 01 00:30:36
  TRACK 26 AUDIO
    TITLE "13:cjc020_2224"
    INDEX 01 00:31:18
  TRACK 27 AUDIO
    TITLE "0:"
    INDEX 01 00:32:25
  TRACK 28 AUDIO
    TITLE "14:cjc020_2225"
    INDEX 01 00:32:31
  TRACK 29 AUDIO
    TITLE "0:"
    INDEX 01 00:35:68
  TRACK 30 AUDIO
    TITLE "13:cjc020_2226"
    INDEX 01 00:36:46
  TRACK 31 AUDIO
    TITLE "0:"
    INDEX 01 00:37:44
  TRACK 32 AUDIO
    TITLE "14:cjc020_2227"
    INDEX 01 00:37:50
  TRACK 33 AUDIO
    TITLE "0:"
    INDEX 01 00:40:64
  TRACK 34 AUDIO
    TITLE "13:cjc020_2228"
    INDEX 01 00:41:47
  TRACK 35 AUDIO
    TITLE "0:"
    INDEX 01 00:42:57
  TRACK 36 AUDIO
    TITLE "14:cjc020_2229"
    INDEX 01 00:42:63
  TRACK 37 AUDIO
    TITLE "0:"
    INDEX 01 00:46:02
  TRACK 38 AUDIO
    TITLE "13:cjc020_2230"
    INDEX 01 00:46:58
  TRACK 39 AUDIO
    TITLE "0:"
    INDEX 01 00:47:58
  TRACK 40 AUDIO
    TITLE "14:cjc020_2231"
    INDEX 01 00:47:64
  TRACK 41 AUDIO
    TITLE "0:"
    INDEX 01 00:50:05
  TRACK 42 AUDIO
    TITLE "13:cjc020_2232"
    INDEX 01 00:50:58
  TRACK 43 AUDIO
    TITLE "0:"
    INDEX 01 00:51:69
  TRACK 44 AUDIO
    TITLE "14:cjc020_2233"
    INDEX 01 00:51:73
  TRACK 45 AUDIO
    TITLE "0:"
    INDEX 01 00:54:58
  TRACK 46 AUDIO
    TITLE "13:cjc020_2234"
    INDEX 01 00:55:40
  TRACK 47 AUDIO
    TITLE "0:"
    INDEX 01 00:56:47
  TRACK 48 AUDIO
    TITLE "14:cjc020_2235"
    INDEX 01 00:56:49
  TRACK 49 AUDIO
    TITLE "0:"
    INDEX 01 01:00:00
  TRACK 50 AUDIO
    TITLE "13:cjc020_2236"
    INDEX 01 01:00:57
  TRACK 51 AUDIO
    TITLE "0:"
    INDEX 01 01:01:64
  TRACK 52 AUDIO
    TITLE "14:cjc020_2237"
    INDEX 01 01:01:68
  TRACK 53 AUDIO
    TITLE "0:"
    INDEX 01 01:05:11
  TRACK 54 AUDIO
    TITLE "13:cjc020_2238"
    INDEX 01 01:05:68
  TRACK 55 AUDIO
    TITLE "0:"
    INDEX 01 01:07:02
  TRACK 56 AUDIO
    TITLE "14:cjc020_2239"
    INDEX 01 01:07:08
  TRACK 57 AUDIO
    TITLE "0:"
    INDEX 01 01:10:24
  TRACK 58 AUDIO
    TITLE "13:cjc020_2240"
    INDEX 01 01:11:03
  TRACK 59 AUDIO
    TITLE "0:"
    INDEX 01 01:12:26
  TRACK 60 AUDIO
    TITLE "14:cjc020_2241"
    INDEX 01 01:12:30
  TRACK 61 AUDIO
    TITLE "0:"
    INDEX 01 01:13:28
